inDegrees=no
num_controls=7
num_derivatives=13
num_iterations=91
num_multipliers=7
num_parameters=0
num_slacks=7
num_states=26
objective=0.410794
objective_accelerations=0.071980
objective_balance=0.001616
objective_effort=0.018243
objective_height=0.313227
objective_ligament=0.005728
solver_duration=1328.954407
status=Solve_Succeeded
success=true
DataType=double
version=3
OpenSimVersion=4.5
endheader
time	/jointset/ground_pelvis/pelvis_tilt/value	/jointset/ground_pelvis/pelvis_tx/value	/jointset/ground_pelvis/pelvis_ty/value	/jointset/hip_l/hip_flexion_l/value	/jointset/hip_l/hip_adduction_l/value	/jointset/hip_l/hip_rotation_l/value	/jointset/back/lumbar_extension/value	/jointset/patellofemoral_l/patellar_flexion_l/value	/jointset/knee_l/knee_flexion_l/value	/jointset/knee_l/knee_adduction_l/value	/jointset/knee_l/knee_rotation_l/value	/jointset/ankle_l/ankle_angle_l/value	/jointset/subtalar_l/subtalar_angle_l/value	/jointset/ground_pelvis/pelvis_tilt/speed	/jointset/ground_pelvis/pelvis_tx/speed	/jointset/ground_pelvis/pelvis_ty/speed	/jointset/hip_l/hip_flexion_l/speed	/jointset/hip_l/hip_adduction_l/speed	/jointset/hip_l/hip_rotation_l/speed	/jointset/back/lumbar_extension/speed	/jointset/patellofemoral_l/patellar_flexion_l/speed	/jointset/knee_l/knee_flexion_l/speed	/jointset/knee_l/knee_adduction_l/speed	/jointset/knee_l/knee_rotation_l/speed	/jointset/ankle_l/ankle_angle_l/speed	/jointset/subtalar_l/subtalar_angle_l/speed	/forceset/tau_hip_flexion_l	/forceset/tau_hip_adduction_l	/forceset/tau_hip_rotation_l	/forceset/tau_knee_flexion_l	/forceset/tau_ankle_angle_l	/forceset/tau_subtalar_angle_l	/forceset/tau_lumbar_extension	lambda_cid13_p0	lambda_cid13_p1	lambda_cid13_p2	lambda_cid13_p3	lambda_cid13_p4	lambda_cid13_p5	lambda_cid14_p0	/jointset/ground_pelvis/pelvis_tilt/accel	/jointset/ground_pelvis/pelvis_tx/accel	/jointset/ground_pelvis/pelvis_ty/accel	/jointset/hip_l/hip_flexion_l/accel	/jointset/hip_l/hip_adduction_l/accel	/jointset/hip_l/hip_rotation_l/accel	/jointset/back/lumbar_extension/accel	/jointset/patellofemoral_l/patellar_flexion_l/accel	/jointset/knee_l/knee_flexion_l/accel	/jointset/knee_l/knee_adduction_l/accel	/jointset/knee_l/knee_rotation_l/accel	/jointset/ankle_l/ankle_angle_l/accel	/jointset/subtalar_l/subtalar_angle_l/accel	gamma_cid13_p0	gamma_cid13_p1	gamma_cid13_p2	gamma_cid13_p3	gamma_cid13_p4	gamma_cid13_p5	gamma_cid14_p0
0.5	-0.2669084275972203	0.001586163125106076	0.7229447518553357	1.205498527922592	-0.3507265884650436	0.02442218273533788	-0.4106330124337653	1.126616112738977	1.126616112738786	0.02046775521572871	-0.1745277879640623	0.3316768966463296	0.1888708933759225	-0.8620977394883808	-0.1928059292291942	-0.7335560382558101	2.953568967503992	0.05919353148759918	0.5826104445422433	-0.2780638298079954	2.430591170364148	2.430591170364216	0.4202119515461868	-3.732027040395105e-05	0.5356747389916513	0.3277133965677667	-0.1149364016498986	0.01998713033475769	-0.00633946863765074	-0.2356984243820686	0.04356606241265921	0.02117062854763648	0.1238783141446824	-9.573904850666146	-3.724439819022015	-4.020485119875134	-10.6114660101693	-433.6104987540555	-69.29742345190441	-0.9147554061299279	0.6899270110333983	0.7990461397890672	-0.6274744538176001	-1.579324813509036	0.0922283644072522	-0.5614914072586769	1.630688185062405	-1.889087805344561	-1.889087805344485	-0.3755115814951667	0.1149950334497986	-1.151958873764797	0.007485373848333626	-2.017576062100475e-07	-5.462497051449887e-06	-2.536526657754099e-07	-7.776903421054103e-07	-5.041391797778433e-07	-2.92291950381544e-06	-5.088146040119636e-07
0.51	-0.2754924111170001	-0.000301606057684014	0.7155797947343976	1.234949487996927	-0.3501320723858705	0.0302161392597401	-0.4133330935814528	1.150823217834297	1.150823217834387	0.02465058288729298	-0.1745279546677669	0.3369745929503751	0.1921447289735244	-0.8545610372444952	-0.184721149659262	-0.7392502092285436	2.93619940763509	0.05971070611347002	0.5761128240052676	-0.2619267887239592	2.410472638067387	2.410472638067543	0.4163745177359376	-8.75353854886703e-06	0.5237842251416125	0.3269944356298419	-0.1207682761495908	0.02084399655653738	-0.006968778670336261	-0.2396422086144316	0.04219123140647135	0.02125010754379164	0.1283816282449362	-10.32565142249563	-3.450026034163708	-4.266759980639212	-10.45445734210777	-438.6606718926884	-69.47540966558918	-0.6055348153706919	0.8061730737091656	0.8170684375326631	-0.5127250361454987	-1.879377512810511	0.03186910186261491	-0.70469948671029	1.609053720909605	-2.126705069497021	-2.126705069483902	-0.3854591481597529	-0.05520537608538049	-1.219898319047416	-0.1197273949591242	-2.271819058556242e-07	-4.86075875843147e-06	4.697290466471829e-07	-6.718826084630419e-07	-5.546439907606245e-07	-2.495310685002697e-06	-5.515990429971738e-07
0.52	-0.2839969013658125	-0.0021077525303873	0.7081634285803032	1.264214031284728	-0.3495323031424015	0.03594295915681361	-0.415871035988133	1.174818443781118	1.174818443781491	0.02879551624728091	-0.174528234277977	0.3421509239802356	0.1954097468482777	-0.8461990852948889	-0.1764813872118333	-0.7438378448870485	2.916285610196998	0.06024416434676579	0.5691831190765612	-0.2456360816065075	2.388215340664421	2.388215340664665	0.4126330892308903	-5.9901572243418e-05	0.5114016841546136	0.3259498519980673	-0.1266001506492832	0.02170086277831576	-0.007598088703022266	-0.2435859928467948	0.04081640040028308	0.02132958653994474	0.1328849423451899	-11.07343921124013	-3.188493337459567	-4.497060598706087	-10.32642048103061	-443.6420310147306	-69.72472430677226	-0.3616453584366183	0.8549769521775168	0.8300427152883852	-0.4061673909718964	-2.088172327347047	0.09548508589224074	-0.6479082856048154	1.661421391745542	-2.316840826585492	-2.316840826585445	-0.356310520454769	0.09905208033987008	-1.250364301156807	-0.05763916492164503	-2.156391875143637e-07	-4.451844495221825e-06	5.797905287207739e-07	-6.24383105427349e-07	-5.324817729340877e-07	-2.241990510639958e-06	-5.299060286866857e-07
0.53	-0.2924139692374064	-0.003830804149833374	0.7007067498553951	1.293267124297055	-0.3489271158438671	0.04159949150625165	-0.4182453663222252	1.198580670520176	1.198580670520141	0.03290267676639068	-0.1745287806222606	0.3472011514375395	0.1986626536958477	-0.837094969982945	-0.1681091028493713	-0.7473068150615628	2.893921650833218	0.0607854297913449	0.5620913975352023	-0.2292259306959733	2.363885606927606	2.363885606927806	0.4087689989761999	-5.821766072647733e-05	0.4985778662947549	0.3245601517155109	-0.1322659451682956	0.02216680972902906	-0.008261740999099817	-0.2479035106504813	0.0396941121391816	0.02139429492998743	0.1372211515493394	-11.75363039839371	-2.929671735442679	-4.730023283454398	-10.22207403927696	-448.7876633280998	-70.06221424638697	-0.1833975303235394	0.9560041682214503	0.8436764841467002	-0.2887032439377313	-2.372264182851474	0.03241670169324769	-0.7451464672445975	1.631420118105136	-2.54259597782957	-2.542595977836027	-0.4065882687484229	-0.0506205421430502	-1.308500732276137	-0.1897453118633186	-1.975676200862516e-07	-3.963191267706344e-06	6.404006185116076e-07	-5.668156971139679e-07	-4.945230089933751e-07	-1.942245086143598e-06	-4.941553512795455e-07
0.54	-0.3007364208863773	-0.005469561888170502	0.6932210931460923	1.322084226427354	-0.3483167220052963	0.0471840381645073	-0.4204554735117326	1.222089288655746	1.222089288655303	0.03697017038479888	-0.1745295795451676	0.3521211186754696	0.2018996415702039	-0.8272758407702563	-0.159622610990044	-0.7496334417659387	2.869087433791117	0.06128547235402423	0.5547859808401167	-0.2127914526895282	2.337493619966791	2.337493619966948	0.4046997090906196	-0.0001104172972356102	0.4853496402798667	0.3227660573553271	-0.1379317396873079	0.02263275667974197	-0.008925393295178658	-0.2522210284541679	0.03857182387807993	0.02145900332002944	0.141557360753489	-12.43075957043715	-2.683670527792131	-4.946911256649406	-10.14864680388322	-453.8870491183711	-70.47269999142719	-0.07141488071733025	0.997979732326477	0.8528842146614254	-0.1776986969441952	-2.582223863011433	0.08724050951228988	-0.6906473163501511	1.66628681092773	-2.729291471385358	-2.729291471385323	-0.3973504466327479	0.08827537073466096	-1.331245932162707	-0.1385179804471315	-1.722726451577928e-07	-3.386316207341852e-06	6.462985296066241e-07	-4.981093297699526e-07	-4.390872153093185e-07	-1.591135555116422e-06	-4.42851514701641e-07
0.55	-0.3089573704785049	-0.007023022984782875	0.6857178531185976	1.350641152183283	-0.3477011945176963	0.05269519587336213	-0.4225012272770979	1.24532410304217	1.245324103042009	0.04099598785585475	-0.1745302465934427	0.3569070203698883	0.2051171638251724	-0.8168051019631442	-0.1510629017082644	-0.7508230664858289	2.841906653261843	0.06180993930790988	0.5473979312015296	-0.1963846637059936	2.309146111328829	2.309146111328812	0.4004407485380106	-4.473124833322451e-05	0.4717754419986852	0.3206646342522439	-0.1435191158691036	0.02318651537855903	-0.009639234905991412	-0.256485959747123	0.03732452227113073	0.02126367729587013	0.1457449433321562	-13.1809353143968	-2.296024446611371	-5.204567397335886	-9.930876547059507	-458.95557114762	-70.58913645647229	-0.02647334521950582	1.087925323903247	0.8584281519290764	-0.06095154233524553	-2.844709208505681	0.03360575012329662	-0.7704635730681098	1.62407044369932	-2.935869484846828	-2.935869484873027	-0.4440915266103996	-0.03752606102592547	-1.378957453429312	-0.2566095188267791	-1.431788836226448e-07	-2.79438268669439e-06	6.234508132022548e-07	-4.286537925881342e-07	-3.764601364485847e-07	-1.244287123615772e-06	-3.84836672336273e-07
0.5600000000000001	-0.3170703518087614	-0.008490704215178875	0.678208445407339	1.378914529321796	-0.347080711168198	0.05813095712874013	-0.4243836740523013	1.268265764557244	1.268265764557365	0.04497843118797702	-0.1745309050378277	0.3615554899460283	0.2083115408403926	-0.8056821883960457	-0.1424666377467691	-0.7508669785186717	2.812377710307757	0.0622766447336592	0.5397066901447375	-0.1801300546571392	2.278863045697058	2.278863045696867	0.3960248813039847	-0.0001086965191887922	0.4578632166241659	0.3181370094056463	-0.149106492050899	0.02374027407737692	-0.01035307651680514	-0.2607508910400779	0.03607722066418166	0.0210683512717121	0.1499325259108237	-13.93188629065504	-1.915925709349261	-5.452244882129876	-9.734418647271658	-464.0169127199214	-70.76715946212526	-0.02552875354237089	1.128414684323721	0.86019515060457	0.05144384046524896	-3.051856347973851	0.07568820388502912	-0.7512855999911564	1.63585082399168	-3.116402870146997	-3.116402870146994	-0.4287317829161436	0.0623451067830779	-1.398851350830278	-0.2237583291499882	-1.095265781594699e-07	-2.184379013707365e-06	5.661083437986237e-07	-3.582992516009518e-07	-3.052035153758387e-07	-9.025520115469556e-07	-3.187686230259491e-07
0.5700000000000001	-0.3250691358776063	-0.009872377269534022	0.6707042561690238	1.406881441484168	-0.3464553284871825	0.06348922290956047	-0.4261043956922658	1.290895425918029	1.290895425918046	0.0489160329069863	-0.1745314866929546	0.3660634433026263	0.2114793282017095	-0.7939766948065397	-0.1338742513604141	-0.7497822430289411	2.780636466041916	0.06279128990058114	0.5319089091551557	-0.1640679862993067	2.246771350425351	2.246771350425178	0.3914621553449	-2.244133447985522e-05	0.4436839964381088	0.3153510636634944	-0.1545687199390828	0.02391038403906174	-0.01109574188998767	-0.2648082514503715	0.03450029464087595	0.02100339084165046	0.1539290274575644	-14.77008905333556	-1.60685984693144	-5.65468163044133	-9.398247269802395	-468.9044658016706	-71.08948392917148	-0.0254844026204245	1.206276898998861	0.8577549466736833	0.1652293411954698	-3.290527780433656	0.03807572306278643	-0.7999462344761109	1.583327897152231	-3.300177981509612	-3.300177981506873	-0.4753307892547949	-0.02041560266373274	-1.434074066440346	-0.3161953580928043	-8.276444155640755e-08	-1.740984419973198e-06	4.991269953199563e-07	-3.100649960409119e-07	-2.477662122908077e-07	-6.63345254621849e-07	-2.67249221564503e-07
